<?xml version="1.0" encoding="UTF-8" standalone="no"?>
<!DOCTYPE svg PUBLIC "-//W3C//DTD SVG 1.1//EN" "http://www.w3.org/Graphics/SVG/1.1/DTD/svg11.dtd">
<svg width="100%" height="100%" viewBox="0 0 800 800" version="1.1" xmlns="http://www.w3.org/2000/svg" xmlns:xlink="http://www.w3.org/1999/xlink" xml:space="preserve" xmlns:serif="http://www.serif.com/" style="fill-rule:evenodd;clip-rule:evenodd;stroke-linejoin:round;stroke-miterlimit:2;">
    <path d="M219.084,138.665C219.084,138.665 246.003,97.847 252.405,97.531C259.649,97.174 254.49,125.8 260.406,130.78C267.215,136.51 293.856,135.911 293.525,142.446C292.884,155.126 260.536,167.115 266.667,179.376C273.706,193.454 310.34,198.073 317.449,195.897C331.91,191.471 338.383,179.575 343.405,164.508C348.531,149.131 349.915,135.936 359.233,126.619C368.58,117.271 421.704,125.586 436.005,119.901C472.109,105.547 479.165,68.011 494.845,61.814C499.463,59.989 514.103,71.178 523.245,71.725C544.133,72.975 556.99,51.973 566.837,49.356C572.608,47.822 597.682,52.254 601.375,52.862C611.453,54.524 649.608,8.957 649.608,8.957C649.608,8.957 647.343,32.339 646.066,37.822C641.479,57.513 632.87,76.372 623.553,85.689C620.397,88.845 605.59,111.544 603.347,123.274C602.489,127.76 579.186,125.359 572.662,127.098C568.17,128.296 565.129,134.677 560.057,134.267C556.521,133.981 541.786,126.825 534.293,129.496C531.363,130.541 521.835,139.55 518.153,138.196C511.211,135.641 479.835,127.229 470.504,131.894C445.99,144.151 434.403,184.043 455.156,204.796C462.579,212.219 479.61,210.292 490.647,212.95C521.856,220.463 521.487,186.509 528.842,187.395C535.428,188.188 540.543,232.196 557.033,238.294C579.153,246.475 578.867,205.931 614.868,216.787C620.185,218.39 628.036,228.442 648.704,229.353C661.581,229.92 664.359,214.686 670.983,201.439C674.251,194.904 666.081,180.631 669.065,178.897C672.925,176.653 689.666,181.349 695.106,178.629C698.047,177.159 722.568,146.069 723.261,146.763C724.492,147.993 723.498,157.556 723.498,159.334C723.498,167.82 719.5,189.528 715.362,192.449C705.026,199.745 672.291,213.837 680.29,223.527C684.141,228.192 699.494,228.713 689.414,238.793C681.646,246.561 667.806,246.35 658.993,253.237C640.615,267.6 643.081,288.561 645.564,293.525C652.299,306.996 668.256,321.775 670.024,330.935C672.175,342.079 646.406,343.757 655.635,354.916C659.114,359.121 674.548,362.806 670.773,370.842C667.259,378.322 657.822,401.611 656.739,404.018C654.58,408.82 643.156,421.365 639.724,427.802C631.678,442.898 639.103,477.587 650.839,491.127C659.942,501.628 684.249,516.591 702.21,505.98C726.275,491.764 735.263,437.948 735.263,437.948C735.263,437.948 740.175,487.362 749.288,500.584C754.471,508.104 721.412,518.056 705.763,536.308C695.21,548.615 675.215,557.525 672.902,568.825C672.019,573.134 666.73,585.467 662.371,589.081C650.851,598.632 628.406,595.895 618.173,605.898C606.436,617.371 619.726,659.767 608.997,671.492C599.093,682.314 574.553,679.798 557.794,691.607C549.008,697.797 531.654,715.324 525.185,736.683C523.041,743.762 521.889,761.274 518.952,761.049C511.497,760.48 484.906,754.754 480.576,750.6C475.516,745.746 473.369,737.158 467.146,730.935C460.261,724.05 436.282,711.293 424.468,713C399.972,716.54 391.034,748.889 382.726,751.601C361.189,758.632 332.127,730.071 316.775,732.152C304.59,733.803 275.451,757.669 260.977,752.318C257.103,750.886 258.083,728.078 254.675,722.137C250.288,714.488 225.284,699.039 216.116,694.179C207.144,689.422 176.113,678.964 157.481,678.762C155.09,678.736 116.822,675.524 120.776,669.229C126.841,659.574 139.638,656.875 142.446,646.043C150.406,615.345 132.497,591.702 126.139,587.05C116.689,580.136 95.319,576.374 90.168,571.223C82.276,563.331 53.177,519.109 55.661,514.055C58.865,507.537 89.815,512.366 95.733,508.399C118.298,493.271 120.373,468.028 120.807,464.908C121.389,460.727 118.96,404.252 110.312,392.326C104.506,384.321 88.918,381.273 85.912,371.316C83.38,362.932 123.424,339.806 117.026,327.578C111.772,317.535 96.067,313.41 82.552,310.699C72.975,308.779 82.675,297.104 79.616,286.811C78.744,283.876 74.204,263.621 74.82,263.004C75.683,262.142 109.926,287.482 139.089,281.535C150.293,279.25 162.874,260.189 169.112,250.235C174.674,241.358 193.272,259.981 199.323,253.93C210.745,242.508 199.515,237 194.362,231.261C190.85,227.35 194.267,220.753 195.272,218.674C203.009,202.664 167.197,181.919 169.527,171.971C170.71,166.918 192.949,168.137 198.224,166.488C203.897,164.713 214.47,146.67 219.084,138.665ZM182.655,443.169C183.257,443.333 181.975,401.561 183.114,399.281C183.957,397.597 181.003,379.199 198.214,365.126C212.94,353.084 225.454,355.117 227.423,355.167C235.476,355.373 242.285,356.841 255.118,366.858C266.798,375.975 271.264,390.83 271.264,398.291L271.264,470.614C271.264,480.782 269.718,536.706 272.349,543.575C274.871,550.159 287.056,560.873 286.724,561.205C285.297,562.632 230.548,561.233 225.655,560.957C217.367,560.49 210.912,559.293 197.189,548.405C186.078,539.588 185.596,532.055 183.556,525.231C182.605,522.049 182.655,458.348 182.655,443.169ZM586.964,443.169C586.362,443.333 587.645,401.561 586.505,399.281C585.663,397.597 588.616,379.199 571.406,365.126C556.68,353.084 544.166,355.117 542.196,355.167C534.143,355.373 527.334,356.841 514.501,366.858C502.821,375.975 498.355,390.83 498.355,398.291L498.355,470.614C498.355,480.782 499.901,536.706 497.27,543.575C494.748,550.159 482.563,560.873 482.895,561.205C484.322,562.632 539.071,561.233 543.964,560.957C552.252,560.49 558.707,559.293 572.43,548.405C583.541,539.588 584.023,532.055 586.063,525.231C587.014,522.049 586.964,458.348 586.964,443.169ZM341.805,439.748C342.408,439.584 341.125,481.356 342.265,483.636C343.107,485.321 340.153,503.718 357.364,517.791C372.09,529.833 384.604,527.8 386.573,527.75C394.626,527.545 401.435,526.076 414.268,516.059C425.949,506.942 430.414,492.087 430.414,484.626L430.414,412.303C430.414,402.136 428.868,346.211 431.499,339.342C434.021,332.758 446.206,322.044 445.874,321.712C444.447,320.285 389.698,321.685 384.805,321.96C376.517,322.427 370.063,323.624 356.34,334.512C345.228,343.329 344.746,350.862 342.706,357.687C341.755,360.869 341.805,424.569 341.805,439.748Z" style="fill:rgb(39,150,231);"/>
    <g transform="matrix(4,0,0,4,-3.02784,-4.96462)">
        <circle cx="57.222" cy="101.566" r="4.015" style="fill:rgb(39,150,231);"/>
    </g>
    <g transform="matrix(4,0,0,4,-3.02784,51.9712)">
        <circle cx="57.222" cy="101.566" r="4.015" style="fill:rgb(39,150,231);"/>
    </g>
    <g transform="matrix(4,0,0,4,-3.02784,109.069)">
        <circle cx="57.222" cy="101.566" r="4.015" style="fill:rgb(39,150,231);"/>
    </g>
    <g transform="matrix(4,0,0,-4,156.122,887.882)">
        <circle cx="57.222" cy="101.566" r="4.015" style="fill:rgb(39,150,231);"/>
    </g>
    <g transform="matrix(4,0,0,-4,156.122,830.946)">
        <circle cx="57.222" cy="101.566" r="4.015" style="fill:rgb(39,150,231);"/>
    </g>
    <g transform="matrix(4,0,0,-4,156.122,773.848)">
        <circle cx="57.222" cy="101.566" r="4.015" style="fill:rgb(39,150,231);"/>
    </g>
    <g transform="matrix(-4,0,0,4,772.647,-4.96462)">
        <circle cx="57.222" cy="101.566" r="4.015" style="fill:rgb(39,150,231);"/>
    </g>
    <g transform="matrix(-4,0,0,4,772.647,51.9712)">
        <circle cx="57.222" cy="101.566" r="4.015" style="fill:rgb(39,150,231);"/>
    </g>
    <g transform="matrix(-4,0,0,4,772.647,109.069)">
        <circle cx="57.222" cy="101.566" r="4.015" style="fill:rgb(39,150,231);"/>
    </g>
    <g transform="matrix(4,0,0,4,0,0)">
        <path d="M183.696,94.293C183.628,94.088 186.979,90.902 187.25,91.172C187.356,91.278 187.305,93.383 187.077,94.065C186.769,94.99 186.189,97.595 186.084,97.909C185.622,99.295 186.751,101.283 186.084,102.616C185.895,102.995 185.601,103.056 185.393,103.264C185.197,103.46 183.758,101.723 183.406,101.018C182.507,99.22 182.143,95.846 183.696,94.293Z" style="fill:rgb(39,150,231);"/>
    </g>
</svg>
